# xmcd CD database file
#
# Track frame offsets:
#	150
#	29895
#	49378
#	66900
#	91575
#	112666
#	138696
#	166650
#	191109
#	208237
#	225262
#	245115
#	264675
#	303759
#
# Disc length: 4358 seconds
#
# Revision: 0
# Processed by: cddbd v1.5.1PL0 Copyright (c) Steve Scherf et al.
# Submitted via: CDex 1.51
#
DISCID=c611040e
DTITLE=吉川晃司 - LIVE GOLDENYEARS 20th
DYEAR=2004
DGENRE=Rock
TTITLE0=TOKYO CIRCUS vs PRETTY DOLL
TTITLE1=ジェラシーを微笑みにかえて
TTITLE2=You Gotta Chance 〜ダンスで夏を抱きしめて〜
TTITLE3=フライデー ナイト レビュー
TTITLE4=HOT LIPS
TTITLE5=Rainy Lane
TTITLE6=青より蒼く 〜Bluer than Blue〜
TTITLE7=RAIN-DANCEがきこえる
TTITLE8=すべてはこの夜に
TTITLE9=SEXY
TTITLE10=Rambling Rose
TTITLE11=Fame＆Money
TTITLE12=INNOCENT SKY
TTITLE13=真夜中のストレンジャー
EXTD=YEAR: 2004
EXTT0=
EXTT1=
EXTT2=
EXTT3=
EXTT4=
EXTT5=
EXTT6=
EXTT7=
EXTT8=
EXTT9=
EXTT10=
EXTT11=
EXTT12=
EXTT13=
PLAYORDER=
